<?xml version="1.0" encoding="iso-8859-1"?>
<!-- Generator: Adobe Illustrator 19.1.0, SVG Export Plug-In . SVG Version: 6.00 Build 0)  -->
<svg version="1.1" id="Capa_1" xmlns="http://www.w3.org/2000/svg" xmlns:xlink="http://www.w3.org/1999/xlink" x="0px" y="0px"
	 viewBox="0 0 63.5 63.5" style="enable-background:new 0 0 63.5 63.5;" xml:space="preserve">
<g>
	<g id="group-4svg">
		<path id="path-1_14_" style="fill:#EDC951;" d="M24.884,63.341l14.229-12.159c0.779-0.666,1.774-1.027,2.799-1.016l3.585-0.2
			c16.808,0,17.291-12.01,16.943-12.01H48.79c-0.941,0-1.857-0.074-2.6-0.652l-2.978-2.012c-1.033-0.802-1.873-1.918-1.873-3.226
			v-7.125c0-1.073,0.643-2.107,1.376-2.892l3.345-3.598c0.801-0.858,2.041-1.489,3.215-1.489H62.44c0.398,0,0.76-0.08,0.942-0.427
			c0.182-0.352,0.153-0.706-0.075-1.028c-4-5.669-10.489-8.885-17.81-8.885c-9.158,0-17.401,6.026-20.516,14.967
			c-0.076,0.219-0.257,0.741-0.67,5.259c-0.23,2.524-1.49,4.896-3.454,6.497L3.501,47.518L24.884,63.341z"/>
		<path id="path-2_14_" d="M22.885,59.844c-0.424,0-0.845-0.179-1.141-0.525c-0.539-0.63-0.464-1.576,0.166-2.115l14.228-12.158
			c1.053-0.9,2.402-1.358,3.79-1.373l3.588,0.045c5.889,0,10.257-1.483,12.964-4.409c1.455-1.573,2.097-3.249,2.361-4.352H46.79
			c-1.255,0-2.503-0.432-3.514-1.218l-2.74-2.146c-1.395-1.084-2.197-2.735-2.197-4.526v-7.125c0-1.454,0.528-2.79,1.529-3.862
			l3.219-3.408c1.029-1.1,2.518-1.709,4.188-1.709H59.73c-3.739-4.969-9.62-7.804-16.233-7.804c-8.519,0-16.194,5.603-19.099,13.942
			c-0.06,0.171-0.236,0.986-0.593,4.894c-0.267,2.923-1.725,5.662-4,7.517L2.449,43.683c-0.643,0.524-1.587,0.426-2.11-0.213
			c-0.525-0.643-0.429-1.587,0.213-2.111l17.357-14.17c1.655-1.35,2.714-3.341,2.908-5.466c0.43-4.698,0.621-5.246,0.748-5.608
			C24.889,6.571,33.703,0.16,43.497,0.16c7.813,0,14.751,3.482,19.036,9.556c0.547,0.772,0.622,1.909,0.181,2.76
			c-0.475,0.905-1.366,1.486-2.274,1.486H47.275c-0.588,0-1.411,0.133-2.001,0.764l-3.218,3.407
			c-0.474,0.507-0.717,1.118-0.717,1.809v7.125c0,0.859,0.38,1.647,1.043,2.161l2.74,2.146c0.483,0.375,1.077,0.584,1.668,0.584
			h13.65c0.16,0,1.564,0.053,1.564,1.865c0,1.442-0.686,4.633-3.257,7.452c-3.294,3.611-8.425,5.442-15.25,5.442l-3.603-0.045
			c-0.71,0.013-1.306,0.226-1.807,0.654L23.859,59.485C23.576,59.726,23.229,59.844,22.885,59.844z"/>
	</g>
</g>
<g>
</g>
<g>
</g>
<g>
</g>
<g>
</g>
<g>
</g>
<g>
</g>
<g>
</g>
<g>
</g>
<g>
</g>
<g>
</g>
<g>
</g>
<g>
</g>
<g>
</g>
<g>
</g>
<g>
</g>
</svg>
