<?xml version="1.0" ?><svg viewBox="0 0 25 25" xmlns="http://www.w3.org/2000/svg"><defs><style>.cls-1{fill:#ffbd1b;}.cls-2{fill:#0070d4;}</style></defs><title/><g data-name="Layer 4" id="Layer_4"><path class="cls-1" d="M12.5,18.83a.5.5,0,0,1-.4-.2c-.79-1-4.73-6.27-5-6.9A.48.48,0,0,1,7,11.59,6.83,6.83,0,0,1,6.5,8.94a6.26,6.26,0,0,1,6-6.47,6.26,6.26,0,0,1,6,6.47,6.85,6.85,0,0,1-.55,2.7.5.5,0,0,1-.06.13l0,0c-.24.56-4.19,5.79-5,6.83A.5.5,0,0,1,12.5,18.83ZM8,11.31H8c.19.41,2.71,3.8,4.5,6.17,1.79-2.37,4.3-5.76,4.5-6.17h0a5.85,5.85,0,0,0,.49-2.36,5.26,5.26,0,0,0-5-5.47,5.26,5.26,0,0,0-5,5.47A5.85,5.85,0,0,0,8,11.3Z"/><path class="cls-2" d="M12.5,11A2.5,2.5,0,1,1,15,8.5,2.5,2.5,0,0,1,12.5,11Zm0-4A1.5,1.5,0,1,0,14,8.5,1.5,1.5,0,0,0,12.5,7Z"/><path class="cls-1" d="M12.5,23C9.7,23,5,22.81,5,21.5S9.7,20,12.5,20s7.5.19,7.5,1.5S15.3,23,12.5,23Zm-6-1.5a27.56,27.56,0,0,0,6,.5,27.56,27.56,0,0,0,6-.5,27.56,27.56,0,0,0-6-.5A27.56,27.56,0,0,0,6.49,21.5Zm12.59.21h0Z"/></g></svg>