<?xml version="1.0" encoding="iso-8859-1"?>
<!-- Generator: Adobe Illustrator 19.1.0, SVG Export Plug-In . SVG Version: 6.00 Build 0)  -->
<svg version="1.1" id="Capa_1" xmlns="http://www.w3.org/2000/svg" xmlns:xlink="http://www.w3.org/1999/xlink" x="0px" y="0px"
	 viewBox="0 0 64.419 64.419" style="enable-background:new 0 0 64.419 64.419;" xml:space="preserve">
<g>
	<g id="group-6svg">
		<path id="path-1_16_" style="fill:#EDC951;" d="M61.209,39.425c0-4.417-3.582-7.998-8-7.998h-37c-4.418,0-8,3.581-8,7.998v16.996
			c0,4.418,3.582,7.998,8,7.998h37c4.418,0,8-3.58,8-7.998V39.425z M41.209,53.422c0,2.208-1.791,3.999-4,3.999h-5
			c-2.209,0-4-1.791-4-3.999V42.425c0-2.209,1.791-4,4-4h5c2.209,0,4,1.791,4,4V53.422z"/>
		<path id="path-2_16_" style="fill:#E56A77;" d="M28.209,31.427v-5.978c0-1.1,1.244-2.02,2.344-2.02h7
			c1.104,0,1.656,0.916,1.656,2.02v5.978l0,0"/>
		<path id="path-3_14_" style="fill:#E56A77;" d="M54.988,49.526c0,2.409-1.954,4.363-4.364,4.363s-4.364-1.954-4.364-4.363
			s1.954-4.362,4.364-4.362S54.988,47.117,54.988,49.526z"/>
		<path id="path-4_13_" style="fill:#E56A77;" d="M23.703,49.526c0,2.409-1.954,4.363-4.364,4.363s-4.363-1.954-4.363-4.363
			s1.953-4.362,4.363-4.362S23.703,47.117,23.703,49.526z"/>
		<path id="path-5_10_" d="M49.709,63.419h-37c-5.238,0-9.5-4.26-9.5-9.497V36.926c0-5.237,4.262-9.498,9.5-9.498h37
			c5.238,0,9.5,4.261,9.5,9.498v16.996C59.209,59.159,54.947,63.419,49.709,63.419z M12.709,30.427c-3.584,0-6.5,2.916-6.5,6.499
			v16.996c0,3.583,2.916,6.498,6.5,6.498h37c3.584,0,6.5-2.915,6.5-6.498V36.926c0-3.583-2.916-6.499-6.5-6.499H12.709z
			 M33.709,56.421h-5c-3.033,0-5.5-2.467-5.5-5.499V39.925c0-3.031,2.467-5.499,5.5-5.499h5c3.033,0,5.5,2.468,5.5,5.499v10.997
			C39.209,53.954,36.743,56.421,33.709,56.421z M28.709,37.426c-1.378,0-2.5,1.121-2.5,2.499v10.997c0,1.379,1.122,2.5,2.5,2.5h5
			c1.378,0,2.5-1.121,2.5-2.5V39.925c0-1.378-1.122-2.499-2.5-2.499H28.709z"/>
		<path id="path-6_9_" d="M22.764,13.076c-0.184,0-0.372-0.034-0.554-0.106c-0.77-0.306-1.146-1.178-0.84-1.947
			c1.372-3.452,4.66-5.682,8.375-5.682c3.629,0,6.887,2.159,8.301,5.501c0.323,0.763-0.034,1.642-0.796,1.966
			c-0.765,0.319-1.644-0.036-1.966-0.798c-0.944-2.229-3.118-3.67-5.539-3.67c-2.478,0-4.672,1.488-5.587,3.79
			C23.924,12.719,23.359,13.076,22.764,13.076z"/>
		<path id="path-7_4_" d="M19.469,9.979c-0.184,0-0.371-0.034-0.553-0.106c-0.77-0.306-1.146-1.178-0.84-1.947
			C19.99,3.111,24.576,0,29.759,0c5.062,0,9.608,3.012,11.58,7.674c0.323,0.763-0.034,1.642-0.797,1.965
			c-0.765,0.321-1.644-0.035-1.966-0.797c-1.501-3.549-4.962-5.843-8.817-5.843c-3.947,0-7.438,2.369-8.895,6.034
			C20.63,9.622,20.066,9.979,19.469,9.979z"/>
		<path id="path-8_3_" d="M35.709,29.928c-0.829,0-1.5-0.672-1.5-1.5v-5.899c-0.106-0.043-0.32-0.1-0.656-0.1h-7
			c-0.162,0-0.273,0.014-0.344,0.029v5.97c0,0.828-0.671,1.5-1.5,1.5s-1.5-0.672-1.5-1.5V22.45c0-1.835,1.312-3.02,3.344-3.02h7
			c2.187,0,3.656,1.214,3.656,3.02v5.978C37.209,29.256,36.538,29.928,35.709,29.928z"/>
		<path id="path-9_2_" d="M46.625,52.389c-3.233,0-5.864-2.629-5.864-5.862c0-3.233,2.631-5.862,5.864-5.862
			c3.233,0,5.864,2.629,5.864,5.862C52.488,49.76,49.857,52.389,46.625,52.389z M46.625,43.664c-1.579,0-2.864,1.284-2.864,2.863
			c0,1.579,1.285,2.863,2.864,2.863c1.579,0,2.864-1.284,2.864-2.863C49.488,44.948,48.203,43.664,46.625,43.664z"/>
		<path id="path-10_1_" d="M15.339,52.389c-3.233,0-5.863-2.629-5.863-5.862c0-3.233,2.63-5.862,5.863-5.862
			s5.864,2.629,5.864,5.862C21.203,49.76,18.572,52.389,15.339,52.389z M15.339,43.664c-1.579,0-2.863,1.284-2.863,2.863
			c0,1.579,1.284,2.863,2.863,2.863s2.864-1.284,2.864-2.863C18.203,44.948,16.918,43.664,15.339,43.664z"/>
		<path id="path-11_1_" d="M29.709,21.929c-0.829,0-1.5-0.671-1.5-1.499v-7.998c0-0.828,0.671-1.5,1.5-1.5s1.5,0.672,1.5,1.5v7.998
			C31.209,21.258,30.538,21.929,29.709,21.929z"/>
	</g>
</g>
<g>
</g>
<g>
</g>
<g>
</g>
<g>
</g>
<g>
</g>
<g>
</g>
<g>
</g>
<g>
</g>
<g>
</g>
<g>
</g>
<g>
</g>
<g>
</g>
<g>
</g>
<g>
</g>
<g>
</g>
</svg>
